HIERARCHY
ROOT Hips
{
  OFFSET 43.5728 82.4013 133.654
  CHANNELS 6 Xposition Yposition Zposition Zrotation Xrotation Yrotation
  JOINT Spine
  {
    OFFSET 0 10 0
    CHANNELS 6 Xposition Yposition Zposition Zrotation Xrotation Yrotation
    JOINT Neck
    {
      OFFSET 0 30 0
      CHANNELS 6 Xposition Yposition Zposition Zrotation Xrotation Yrotation
      JOINT Head
      {
        OFFSET 0 8 0
        CHANNELS 6 Xposition Yposition Zposition Zrotation Xrotation Yrotation
        End Site
        {
          OFFSET 0 10 0
        }
      }
    }
    JOINT LeftArm
    {
      OFFSET 15 30 0
      CHANNELS 6 Xposition Yposition Zposition Zrotation Xrotation Yrotation
      JOINT LeftForeArm
      {
        OFFSET 25 0 0
        CHANNELS 6 Xposition Yposition Zposition Zrotation Xrotation Yrotation
        JOINT LeftHand
        {
          OFFSET 25 0 0
          CHANNELS 6 Xposition Yposition Zposition Zrotation Xrotation Yrotation
          End Site
          {
            OFFSET 10 0 0
          }
        }
      }
    }
    JOINT RightArm
    {
      OFFSET -15 30 0
      CHANNELS 6 Xposition Yposition Zposition Zrotation Xrotation Yrotation
      JOINT RightForeArm
      {
        OFFSET -25 0 0
        CHANNELS 6 Xposition Yposition Zposition Zrotation Xrotation Yrotation
        JOINT RightHand
        {
          OFFSET -25 0 0
          CHANNELS 6 Xposition Yposition Zposition Zrotation Xrotation Yrotation
          End Site
          {
            OFFSET -10 0 0
          }
        }
      }
    }
  }
  JOINT LeftUpLeg
  {
    OFFSET 10 -10 0
    CHANNELS 6 Xposition Yposition Zposition Zrotation Xrotation Yrotation
    JOINT LeftLeg
    {
      OFFSET 0 -35 0
      CHANNELS 6 Xposition Yposition Zposition Zrotation Xrotation Yrotation
      JOINT LeftFoot
      {
        OFFSET 0 -40 0
        CHANNELS 6 Xposition Yposition Zposition Zrotation Xrotation Yrotation
        End Site
        {
          OFFSET 0 0 15
        }
      }
    }
  }
  JOINT RightUpLeg
  {
    OFFSET -10 -10 0
    CHANNELS 6 Xposition Yposition Zposition Zrotation Xrotation Yrotation
    JOINT RightLeg
    {
      OFFSET 0 -35 0
      CHANNELS 6 Xposition Yposition Zposition Zrotation Xrotation Yrotation
      JOINT RightFoot
      {
        OFFSET 0 -40 0
        CHANNELS 6 Xposition Yposition Zposition Zrotation Xrotation Yrotation
        End Site
        {
          OFFSET 0 0 15
        }
      }
    }
  }
}
MOTION
Frames:	6
Frame Time:	0.0416667
43.5728 82.4013 133.654 0 0 -0 0 10 0 0 0 -0 0 30 0 0 0 -0 0 8 0 0 0 -0 15 30 0 -6.83019e-06 -1.70755e-06 -1.53679e-05 25 1.42109e-14 0 6.83019e-06 1.70755e-06 2.50273e-05 25 0 2.84217e-14 8.51632e-29 5.36731e-29 -9.65935e-06 -15 30 0 6.83019e-06 -8.53773e-07 5.12264e-06 -25 0 2.84217e-14 -6.83019e-06 -5.97642e-06 -1.4782e-05 -25 0 0 -5.75742e-13 6.83019e-06 9.65935e-06 10 -10 0 0 0 -0 0 -35 0 -0 -6.83019e-06 -0 0 -40 0 0 6.83019e-06 -0 -10 -10 0 3.41509e-06 0 -0 0 -35 0 -3.41509e-06 -6.83019e-06 -0 0 -40 0 0 6.83019e-06 -0 
43.0941 79.5942 118.838 5.54748 -24.284 -175.139 0 10 0 -2.46178 -13.4744 -1.4802 0 30 0 5.5448 0.367819 3.15561 3.55271e-15 8 0 -2.6831 11.9366 3.73617 15 30 0 -61.5693 42.2035 -12.4963 25 0 1.42109e-14 16.0633 -8.74613 -29.8063 25 0 0 3.623 -46.3076 8.45933 -15 30 0 69.7393 30.5173 -12.8556 -25 0 0 -22.2582 -16.15 44.493 -25 0 0 -0.344004 -16.4543 -2.37892 10 -10 0 1.78872 -35.1855 -5.44149 -7.10543e-15 -35 0 0.192964 32.9996 -0.649662 -7.10543e-15 -40 -2.84217e-14 3.03223 -18.9423 9.40367 -10 -10 0 -5.82822 -53.026 19.4965 0 -35 0 -0.151218 29.7811 0.572862 1.42109e-14 -40 -1.42109e-14 -3.0173 -7.72828 -21.0294 
43.8377 79.4519 117.318 4.72682 -24.8464 -174.817 0 10 2.84217e-14 -2.13417 -14.0153 -1.37114 7.10543e-15 30 0 5.56723 0.773064 2.93479 0 8 0 -2.78424 12.1121 3.31503 15 30 0 -61.886 44.9247 -12.4753 25 -1.42109e-14 0 16.1785 -8.85408 -30.0503 25 0 -7.10543e-15 3.56358 -46.0298 8.37698 -15 30 0 69.1252 30.637 -11.9034 -25 1.42109e-14 0 -22.641 -16.7509 45.5591 -25 7.10543e-15 -1.42109e-14 -0.355519 -16.7095 -2.418 10 -10 2.84217e-14 1.46732 -33.8051 -5.38273 7.10543e-15 -35 -1.42109e-14 0.174112 31.4447 -0.612064 0 -40 -1.42109e-14 2.9197 -18.909 9.08426 -10 -10 0 -8.40897 -52.6978 20.5067 -7.10543e-15 -35 1.42109e-14 -0.117109 26.4125 0.49662 -7.10543e-15 -40 0 -3.69071 -8.29124 -23.6639 
44.8548 79.0738 115.685 3.85979 -25.3279 -174.811 0 10 0 -1.63285 -14.323 -1.09916 0 30 0 5.58459 1.21215 2.8799 3.55271e-15 8 0 -3.06221 12.0294 3.18605 15 30 0 -62.5116 46.7846 -11.9087 25 0 0 16.2809 -8.95082 -30.2679 25 -7.10543e-15 -7.10543e-15 3.32213 -44.8551 8.03812 -15 30 0 68.631 31.1976 -10.1052 -25 0 0 -22.8025 -17.0115 46.0173 -25 7.10543e-15 0 -0.360874 -16.848 -2.43927 10 -10 0 1.43815 -32.7419 -5.17202 7.10543e-15 -35 0 0.165197 30.9538 -0.598238 7.10543e-15 -40 0 3.08553 -19.6373 9.25542 -10 -10 0 -9.39061 -52.6341 20.1375 7.10543e-15 -35 0 -0.106597 25.3438 0.473681 0 -40 -2.84217e-14 -3.8564 -8.42313 -24.2633 
46.0727 78.6612 113.968 3.23233 -25.608 -174.584 0 10 0 -0.669841 -14.1739 -0.826354 7.10543e-15 30 0 5.29288 1.60431 2.86675 7.10543e-15 8 2.84217e-14 -3.36043 11.6982 3.22177 15 30 0 -63.3964 47.8239 -10.9717 25 -1.42109e-14 0 16.4851 -9.14586 -30.7036 25 0 0 3.17988 -44.1273 7.83517 -15 30 -1.42109e-14 68.0756 32.2952 -7.62335 -25 0 0 -22.7811 -16.9767 45.956 -25 1.42109e-14 1.42109e-14 -0.357429 -16.7609 -2.4259 10 -10 0 1.82287 -31.7185 -5.00347 0 -35 -1.42109e-14 0.166619 30.9126 -0.595784 -7.10543e-15 -40 0 3.23293 -20.4565 9.33121 -10 -10 0 -9.17337 -52.8256 18.3208 0 -35 1.42109e-14 -0.117782 26.5653 0.500101 -7.10543e-15 -40 0 -2.36798 -5.99481 -21.0748 
47.2876 78.4786 112.311 3.50745 -25.7355 -173.711 0 10 0 1.71688 -13.3239 -0.585453 -7.10543e-15 30 0 4.31628 1.76164 2.90683 0 8 0 -3.6959 11.1219 3.46164 15 30 0 -64.7699 47.823 -10.1384 25 -1.42109e-14 0 16.788 -9.44039 -31.3545 25 0 7.10543e-15 3.12916 -43.8608 7.76214 -15 30 0 66.9466 33.1971 -4.29936 -25 1.42109e-14 -2.84217e-14 -22.5475 -16.6019 45.2958 -25 -1.42109e-14 1.42109e-14 -0.320146 -15.8927 -2.29329 10 -10 0 3.007 -31.1202 -5.09362 -7.10543e-15 -35 1.42109e-14 0.171679 31.4145 -0.61083 -7.10543e-15 -40 -1.42109e-14 3.28286 -20.8426 9.31663 -10 -10 0 -8.00099 -54.0249 16.2988 -7.10543e-15 -35 1.42109e-14 -0.148652 29.7485 0.571843 -7.10543e-15 -40 0 -1.05599 -2.81537 -19.5115 
